<svg height="502pt" viewBox="0 -56 502.77784 502" width="502pt" xmlns="http://www.w3.org/2000/svg"><path d="m294.660156 58.390625v199.660156s-107.140625-1.140625-190.421875-1.320312h-4.117187c-23.980469-.042969-45.761719 0-62.121094.179687-17.980469.199219-29.421875.558594-30 1.140625v-199.660156c0-27.621094 22.378906-50 50-50h186.660156c27.617188 0 50 22.378906 50 50zm0 0" fill="#a4a4a5"/><path d="m294.660156 58.390625v199.359375c-44.820312-.402344-130.441406-1.101562-190.421875-1.019531h-4.117187c-35.601563.058593-61.222656.417969-62.121094 1.320312v-199.660156c0-27.621094 22.378906-50 50-50h156.660156c27.617188 0 50 22.378906 50 50zm0 0" fill="#87828e"/><path d="m244.660156 8.390625h-29c27.621094 0 50 22.378906 50 50v199.097656c10.800782.101563 20.621094.179688 29 .261719v-199.359375c0-27.621094-22.382812-50-50-50zm0 0" fill="#796e84"/><path d="m494.660156 234.050781v36c0 27.617188-22.378906 50-50 50h-386.664062c-27.617188 0-50-22.382812-50-50v-36zm0 0" fill="#44c7b6"/><path d="m494.660156 211.070312v58.980469c0 27.617188-22.378906 50-50 50h-150v-240.34375h113.601563c19.71875 0 37.597656 11.582031 45.636719 29.582031l4.523437 10.101563 31.878906 71.238281c1.640625 3.660156 2.820313 7.5 3.519531 11.421875.558594 2.957031.839844 5.976563.839844 9.019531zm0 0" fill="#3bb2a0"/><path d="m465.996094 211.070312v58.980469c0 27.617188-22.378906 50-50 50h-121.339844v-240.34375h84.941406c19.71875 0 37.601563 11.582031 45.640625 29.582031l4.519531 10.101563 31.878907 71.238281c1.640625 3.660156 2.820312 7.5 3.519531 11.421875.5625 2.957031.839844 5.976563.839844 9.019531zm0 0" fill="#44c7b6"/><path d="m493.816406 202.050781h-147.160156c-11.039062 0-20-8.960937-20-20v-42.660156c0-11.0625 8.960938-20 20-20h111.761719l31.878906 71.238281c1.640625 3.660156 2.824219 7.5 3.519531 11.421875zm0 0" fill="#ffefee"/><path d="m493.816406 202.050781h-117.160156c-11.039062 0-20-8.960937-20-20v-42.660156c0-11.0625 8.960938-20 20-20h81.761719l31.878906 71.238281c1.640625 3.660156 2.824219 7.5 3.519531 11.421875zm0 0" fill="#ffe2e2"/><path d="m37.996094 270.050781v-36h-30v36c0 27.617188 22.382812 50 50 50h30c-27.617188 0-50-22.382812-50-50zm0 0" fill="#4bdbc3"/><path d="m172 320.214844c0 34.703125-28.132812 62.835937-62.835938 62.835937-34.699218 0-62.832031-28.132812-62.832031-62.835937s28.132813-62.832032 62.832031-62.832032c34.703126 0 62.835938 28.128907 62.835938 62.832032zm0 0" fill="#87828e"/><path d="m469.664062 320.214844c0 34.703125-28.128906 62.835937-62.832031 62.835937s-62.835937-28.132812-62.835937-62.835937 28.132812-62.832032 62.835937-62.832032 62.832031 28.128907 62.832031 62.832032zm0 0" fill="#87828e"/><path d="m124.160156 259.1875c-4.800781-1.179688-9.820312-1.796875-15-1.796875-34.699218 0-62.820312 28.117187-62.820312 62.816406 0 34.703125 28.121094 62.84375 62.820312 62.84375 5.179688 0 10.199219-.621093 15-1.820312-27.460937-6.703125-47.820312-31.480469-47.820312-61.023438 0-29.539062 20.359375-54.296875 47.820312-61.019531zm0 0" fill="#a4a4a5"/><path d="m373.996094 320.207031c0-29.539062 20.382812-54.296875 47.84375-61.019531-4.800782-1.179688-9.820313-1.796875-15-1.796875-34.703125 0-62.84375 28.117187-62.84375 62.816406 0 34.703125 28.140625 62.84375 62.84375 62.84375 5.179687 0 10.199218-.621093 15-1.820312-27.460938-6.703125-47.84375-31.480469-47.84375-61.023438zm0 0" fill="#a4a4a5"/><path d="m109.164062 353.050781c-18.105468 0-32.832031-14.730469-32.832031-32.835937 0-18.105469 14.726563-32.832032 32.832031-32.832032 18.105469 0 32.832032 14.726563 32.832032 32.832032 0 18.105468-14.726563 32.835937-32.832032 32.835937zm0 0" fill="#796e84"/><path d="m406.832031 353.050781c-18.105469 0-32.832031-14.730469-32.832031-32.835937 0-18.105469 14.726562-32.832032 32.832031-32.832032s32.832031 14.726563 32.832031 32.832032c0 18.105468-14.726562 32.835937-32.832031 32.835937zm0 0" fill="#796e84"/><path d="m490.296875 190.628906-31.878906-71.238281h-28.660157l31.878907 71.238281c1.640625 3.660156 2.820312 7.5 3.519531 11.421875h28.660156c-.695312-3.921875-1.878906-7.761719-3.519531-11.421875zm0 0" fill="#ffcfcf"/><path d="m265.660156 234.050781h29v86h-29zm0 0" fill="#3bb2a0"/><g fill="#5f266d"><path d="m109.160156 279.390625c-25.976562 0-45.078125 24.046875-40.039062 48.660156 3.640625 18.777344 20.21875 33 40.039062 33 25.792969 0 45.179688-23.761719 40.019532-49-3.800782-18.601562-20.300782-32.660156-40.019532-32.660156zm23.558594 48.660156c-3.28125 9.878907-12.601562 17-23.5625 17-17.128906 0-29.050781-17.042969-23.4375-33 3.378906-9.703125 12.621094-16.660156 23.4375-16.660156 17.164062 0 28.921875 16.960937 23.5625 32.660156zm0 0"/><path d="m497.601562 187.367188-31.722656-70.878907c0-.019531-.019531-.039062-.019531-.039062s-3.921875-8.769531-4.660156-10.421875c-9.320313-20.839844-30.097657-34.320313-52.9375-34.320313h-105.601563v-13.316406c0-31.980469-26.019531-58-58-58h-186.660156c-31.980469 0-58 26.019531-58 58v211.660156c0 25.136719 16.078125 46.578125 38.480469 54.617188 2.300781 37 33.121093 66.382812 70.679687 66.382812 36.398438 0 66.480469-27.601562 70.417969-63h156.84375c3.9375 35.398438 34.019531 63 70.417969 63 38.53125 0 71.804687-31.355469 70.78125-73.300781 15.117187-10.480469 25.039062-27.960938 25.039062-47.699219 0-63.742187 1.347656-68.382812-5.058594-82.683593zm-44.363281-59.976563 29.757813 66.519531c.023437.039063.042968.097656.0625.140625h-136.402344c-6.617188 0-12-5.382812-12-12v-42.660156c0-6.621094 5.382812-12 12-12zm-344.078125 247.660156c-33.609375 0-59.308594-30.148437-54.179687-63.121093 3.980469-26.300782 26.78125-46.539063 54.179687-46.539063 27.460938 0 50.28125 20.296875 54.21875 46.660156 5.125 32.4375-20.324218 63-54.21875 63zm177.5-63h-107.121094c-4.078124-35.242187-34.078124-62.660156-70.378906-62.660156-34.800781 0-63.800781 25.199219-69.71875 58.316406-13.882812-6.859375-23.441406-21.15625-23.441406-37.65625 0-15.644531 0-12.25 0-28h270.660156zm0-86h-270.664062v-167.660156c0-23.160156 18.84375-42 42-42h186.660156c23.160156 0 42 18.839844 42 42 .003906 19.484375.003906 147.097656.003906 167.660156zm120.179688 149c-39.171875 0-65.769532-40.132812-50.5-76.222656 14.429687-33.898437 57.183594-44.050781 85.199218-21.019531 39.683594 32.5 16.769532 97.242187-34.699218 97.242187zm67.738281-75.5625c-9.007813-29.238281-36.09375-50.097656-67.738281-50.097656-36.378906 0-66.347656 27.539063-70.378906 62.660156h-33.800782c0-36.261719 0-200.128906 0-224.34375h105.601563c16.097656 0 30.777343 9.261719 37.777343 23.683594h-99.378906c-15.441406 0-28 12.558594-28 28v42.660156c0 15.4375 12.558594 28 28 28h139.980469c.019531.339844.019531.679688.019531 1.019531 0 61.597657 3.160156 72.972657-12.082031 88.417969zm0 0"/><path d="m375.476562 294.109375c-22.039062 26.285156-3.308593 66.941406 31.363282 66.941406 26.003906 0 45.230468-24.117187 39.976562-49.0625-6.871094-33.472656-49.445312-44.148437-71.339844-17.878906zm31.363282 50.941406c-17.183594 0-29.058594-17.082031-23.460938-33 9.082032-26.066406 48.277344-19.914062 48.277344 8.15625.003906 13.574219-11.023438 24.84375-24.816406 24.84375zm0 0"/><path d="m363.339844 224.050781c-36.203125 0-35.566406-.667969-38.621094 2-5.515625 4.847657-2.089844 14 5.277344 14h33.34375c10.554687 0 10.5625-16 0-16zm0 0"/><path d="m231.664062 35.382812h-14.332031c-4.417969 0-8 3.582032-8 8 0 4.417969 3.582031 8 8 8h14.332031c8.273438 0 15 6.726563 15 15v29.527344c0 4.417969 3.582032 8 8 8 4.417969 0 8-3.582031 8-8v-29.527344c0-17.09375-13.90625-31-31-31zm0 0"/><path d="m254.664062 117.90625c-4.417968 0-8 3.582031-8 8v16.144531c0 4.417969 3.582032 8 8 8 4.417969 0 8-3.582031 8-8v-16.144531c0-4.417969-3.582031-8-8-8zm0 0"/></g></svg>